<?xml version="1.0" encoding="UTF-8"?>
<!DOCTYPE svg PUBLIC "-//W3C//DTD SVG 1.0//EN" "http://www.w3.org/TR/2001/REC-SVG-20010904/DTD/svg10.dtd">
<!-- Creator: CorelDRAW 2019 (64-Bit) -->
<svg xmlns="http://www.w3.org/2000/svg" xml:space="preserve" width="8.26772in" height="11.6929in" version="1.0" shape-rendering="geometricPrecision" text-rendering="geometricPrecision" image-rendering="optimizeQuality" fill-rule="evenodd" clip-rule="evenodd"
viewBox="0 0 8267.72 11692.91"
 xmlns:xlink="http://www.w3.org/1999/xlink"
 xmlns:xodm="http://www.corel.com/coreldraw/odm/2003">
 <g id="Layer_x0020_1">
  <metadata id="CorelCorpID_0Corel-Layer"/>
  <path fill="white" fill-rule="nonzero" d="M-11573.11 1691.84l1164.75 0c7.96,0 25.87,9.09 53.72,27.29 27.85,18.19 57.98,39.51 90.39,63.95 32.4,24.44 63.67,49.17 93.8,74.19 30.13,25.01 50.87,44.34 62.24,57.98l-1072.67 0 0 115.96 1088.01 0 0 564.47 -1164.75 0c-7.96,0 -25.86,-9.09 -53.72,-27.29 -27.85,-18.19 -57.98,-39.5 -90.39,-63.95 -32.4,-24.44 -63.67,-49.17 -93.79,-74.18 -30.13,-25.01 -50.88,-44.34 -62.25,-57.98l1072.67 0 0 -119.37 -1088.01 0 0 -561.06z"/>
  <polygon id="1" fill="white" fill-rule="nonzero" points="-8794.3,1691.84 -8403.77,1691.84 -8403.77,2595.68 -9791.92,2595.68 -9791.92,1691.84 -9399.69,1691.84 -9399.69,2372.28 -8794.3,2372.28 "/>
  <polygon id="2" fill="white" fill-rule="nonzero" points="-7666.25,1691.84 -6866.44,2322.82 -6866.44,1911.83 -7238.21,1911.83 -6997.76,1691.84 -6475.92,1691.84 -6475.92,2595.68 -6999.46,2595.68 -8145.46,1691.84 "/>
  <polygon id="3" fill="white" fill-rule="nonzero" points="-5777.63,2831.02 -6174.98,2595.68 -6174.98,1691.84 -5777.63,1691.84 "/>
  <polygon id="4" fill="white" fill-rule="nonzero" points="-3786.69,2831.02 -5086.16,1968.11 -5086.16,2375.69 -4579.67,2375.69 -4820.13,2595.68 -5476.69,2595.68 -5476.69,1691.84 -4961.67,1691.84 -4177.21,2217.09 -4177.21,1691.84 -3786.69,1691.84 "/>
  <path id="5" fill="white" fill-rule="nonzero" d="M-3485.74 2595.68l0 -903.83 1221.03 0c28.42,0 57.98,5.69 88.68,17.06 30.7,11.37 58.55,27 83.56,46.9 25.01,19.89 45.48,44.06 61.39,72.48 15.92,28.42 23.87,59.69 23.87,93.8l0 441.69c0,26.15 -4.26,52.86 -12.79,80.15 -8.52,27.28 -22.74,52.3 -42.63,75.04 -19.89,22.74 -46.33,41.21 -79.3,55.43 -32.97,14.21 -73.9,21.31 -122.79,21.31l-1221.03 0zm392.23 -223.4l673.61 0c10.23,-6.82 17.05,-18.19 20.46,-34.11l0 -392.23c-1.14,-6.82 -3.13,-11.65 -5.97,-14.5 -2.84,-2.84 -7.11,-8.81 -12.79,-17.91l-675.32 0 0 458.74z"/>
  <polygon fill="#66D6EA" fill-rule="nonzero" points="-2269.31,4017.2 -263.2,2430.28 -263.2,3465.42 -1195.68,3465.42 -592.56,4017.2 716.33,4017.2 716.33,1750.17 -596.84,1750.17 -3471.27,4017.2 "/>
  <polygon fill="white" fill-rule="nonzero" points="-11565.54,4060.17 -11565.54,3156.33 -10177.38,3156.33 -10177.38,3741.27 -11067.57,3741.27 -11067.57,3517.87 -10567.91,3517.87 -10567.91,3378.03 -11173.31,3378.03 -11173.31,4060.17 "/>
  <polygon id="1" fill="white" fill-rule="nonzero" points="-9806.79,3156.33 -8408.41,3156.33 -8408.41,3378.03 -9411.15,3378.03 -9411.15,3494 -8413.52,3494 -8413.52,3717.39 -9411.15,3717.39 -9411.15,3836.77 -8410.11,3836.77 -8410.11,4060.17 -9806.79,4060.17 "/>
  <polygon id="2" fill="white" fill-rule="nonzero" points="-7127.16,3615.07 -7127.16,3379.74 -7647.29,3379.74 -7647.29,4060.17 -8037.81,4060.17 -8037.81,3156.33 -6733.22,3156.33 -6733.22,3379.74 "/>
  <polygon id="3" fill="white" fill-rule="nonzero" points="-6362.63,3156.33 -4964.25,3156.33 -4964.25,3378.03 -5966.99,3378.03 -5966.99,3494 -4969.37,3494 -4969.37,3717.39 -5966.99,3717.39 -5966.99,3836.77 -4965.96,3836.77 -4965.96,4060.17 -6362.63,4060.17 "/>
  <polygon id="4" fill="white" fill-rule="nonzero" points="-3683,3615.07 -3683,3379.74 -4203.13,3379.74 -4203.13,4060.17 -4593.66,4060.17 -4593.66,3156.33 -3289.07,3156.33 -3289.07,3379.74 "/>
 </g>
</svg>
