{
    "asset" : {
        "generator" : "Khronos glTF Blender I/O v3.2.40",
        "version" : "2.0"
    },
    "scene" : 0,
    "scenes" : [
        {
            "name" : "Scene",
            "nodes" : [
                0,
                1,
                2,
                3,
                4,
                5
            ]
        }
    ],
    "nodes" : [
        {
            "mesh" : 0,
            "name" : "Suvinda",
            "rotation" : [
                0.7071067094802856,
                0,
                0,
                0.7071068286895752
            ],
            "translation" : [
                0,
                0.8449692130088806,
                0.4523235857486725
            ]
        },
        {
            "mesh" : 1,
            "name" : "Text",
            "rotation" : [
                0.7071067094802856,
                0,
                0,
                0.7071068286895752
            ],
            "translation" : [
                -0.010562658309936523,
                -0.09624632447957993,
                0.4061741530895233
            ]
        },
        {
            "mesh" : 2,
            "name" : "Text.001",
            "rotation" : [
                0.7071067094802856,
                0,
                0,
                0.7071068286895752
            ],
            "scale" : [
                2.425307035446167,
                2.425307035446167,
                2.425307035446167
            ],
            "translation" : [
                5.334828853607178,
                -0.03303886577486992,
                0.4061741530895233
            ]
        },
        {
            "mesh" : 3,
            "name" : "Suvinda.001",
            "rotation" : [
                0.7071067094802856,
                0,
                0,
                0.7071068286895752
            ],
            "translation" : [
                0,
                0.8449692130088806,
                0.4523235857486725
            ]
        },
        {
            "mesh" : 4,
            "name" : "Text.002",
            "rotation" : [
                0.7071067094802856,
                0,
                0,
                0.7071068286895752
            ],
            "translation" : [
                -0.010562658309936523,
                -0.09624632447957993,
                0.4061741530895233
            ]
        },
        {
            "mesh" : 5,
            "name" : "Text.003",
            "rotation" : [
                0.7071067094802856,
                0,
                0,
                0.7071068286895752
            ],
            "scale" : [
                2.425307035446167,
                2.425307035446167,
                2.425307035446167
            ],
            "translation" : [
                5.334828853607178,
                -0.03303886577486992,
                0.4061741530895233
            ]
        }
    ],
    "materials" : [
        {
            "doubleSided" : true,
            "emissiveFactor" : [
                0.04390900768339634,
                1,
                1
            ],
            "name" : "Material.003",
            "pbrMetallicRoughness" : {
                "baseColorFactor" : [
                    0,
                    0,
                    0,
                    1
                ]
            }
        },
        {
            "doubleSided" : true,
            "name" : "Material.005",
            "pbrMetallicRoughness" : {}
        }
    ],
    "meshes" : [
        {
            "name" : "Text",
            "primitives" : [
                {
                    "attributes" : {
                        "POSITION" : 0,
                        "NORMAL" : 1
                    },
                    "indices" : 2,
                    "material" : 0
                }
            ]
        },
        {
            "name" : "Text.002",
            "primitives" : [
                {
                    "attributes" : {
                        "POSITION" : 3,
                        "NORMAL" : 4
                    },
                    "indices" : 5,
                    "material" : 0
                }
            ]
        },
        {
            "name" : "Text.003",
            "primitives" : [
                {
                    "attributes" : {
                        "POSITION" : 6,
                        "NORMAL" : 7
                    },
                    "indices" : 8,
                    "material" : 1
                }
            ]
        },
        {
            "name" : "Text.004",
            "primitives" : [
                {
                    "attributes" : {
                        "POSITION" : 9,
                        "NORMAL" : 10
                    },
                    "indices" : 11,
                    "material" : 1
                }
            ]
        },
        {
            "name" : "Text.005",
            "primitives" : [
                {
                    "attributes" : {
                        "POSITION" : 12,
                        "NORMAL" : 13
                    },
                    "indices" : 14,
                    "material" : 1
                }
            ]
        },
        {
            "name" : "Text.006",
            "primitives" : [
                {
                    "attributes" : {
                        "POSITION" : 15,
                        "NORMAL" : 16
                    },
                    "indices" : 17,
                    "material" : 0
                }
            ]
        }
    ],
    "accessors" : [
        {
            "bufferView" : 0,
            "componentType" : 5126,
            "count" : 4766,
            "max" : [
                5.834742546081543,
                0.07000000774860382,
                0.2396024763584137
            ],
            "min" : [
                -0.03679988905787468,
                -0.07000000774860382,
                -0.6328411102294922
            ],
            "type" : "VEC3"
        },
        {
            "bufferView" : 1,
            "componentType" : 5126,
            "count" : 4766,
            "type" : "VEC3"
        },
        {
            "bufferView" : 2,
            "componentType" : 5123,
            "count" : 20004,
            "type" : "SCALAR"
        },
        {
            "bufferView" : 3,
            "componentType" : 5126,
            "count" : 766,
            "max" : [
                5.262147426605225,
                0.07000000029802322,
                0.039999980479478836
            ],
            "min" : [
                -0.01091720536351204,
                -0.07000000029802322,
                -0.6328411102294922
            ],
            "type" : "VEC3"
        },
        {
            "bufferView" : 4,
            "componentType" : 5126,
            "count" : 766,
            "type" : "VEC3"
        },
        {
            "bufferView" : 5,
            "componentType" : 5123,
            "count" : 3540,
            "type" : "SCALAR"
        },
        {
            "bufferView" : 6,
            "componentType" : 5126,
            "count" : 126,
            "max" : [
                0.8875503540039062,
                0.054999999701976776,
                0.005000000353902578
            ],
            "min" : [
                -0.005472543649375439,
                -0.054999999701976776,
                -0.5978411436080933
            ],
            "type" : "VEC3"
        },
        {
            "bufferView" : 7,
            "componentType" : 5126,
            "count" : 126,
            "type" : "VEC3"
        },
        {
            "bufferView" : 8,
            "componentType" : 5123,
            "count" : 636,
            "type" : "SCALAR"
        },
        {
            "bufferView" : 9,
            "componentType" : 5126,
            "count" : 11630,
            "max" : [
                5.804742813110352,
                0.11601272970438004,
                0.17567244172096252
            ],
            "min" : [
                0.018484581261873245,
                -0.11603794991970062,
                -0.6028411388397217
            ],
            "type" : "VEC3"
        },
        {
            "bufferView" : 10,
            "componentType" : 5126,
            "count" : 11630,
            "type" : "VEC3"
        },
        {
            "bufferView" : 11,
            "componentType" : 5123,
            "count" : 46584,
            "type" : "SCALAR"
        },
        {
            "bufferView" : 12,
            "componentType" : 5126,
            "count" : 770,
            "max" : [
                5.232147693634033,
                0.10999999940395355,
                0.009999999776482582
            ],
            "min" : [
                0.019082775339484215,
                -0.10999999940395355,
                -0.6028411388397217
            ],
            "type" : "VEC3"
        },
        {
            "bufferView" : 13,
            "componentType" : 5126,
            "count" : 770,
            "type" : "VEC3"
        },
        {
            "bufferView" : 14,
            "componentType" : 5123,
            "count" : 3540,
            "type" : "SCALAR"
        },
        {
            "bufferView" : 15,
            "componentType" : 5126,
            "count" : 138,
            "max" : [
                0.9125503301620483,
                0.03999999910593033,
                0.029999984428286552
            ],
            "min" : [
                -0.06639226526021957,
                -0.03999999910593033,
                -0.6228411197662354
            ],
            "type" : "VEC3"
        },
        {
            "bufferView" : 16,
            "componentType" : 5126,
            "count" : 138,
            "type" : "VEC3"
        },
        {
            "bufferView" : 17,
            "componentType" : 5123,
            "count" : 648,
            "type" : "SCALAR"
        }
    ],
    "bufferViews" : [
        {
            "buffer" : 0,
            "byteLength" : 57192,
            "byteOffset" : 0
        },
        {
            "buffer" : 0,
            "byteLength" : 57192,
            "byteOffset" : 57192
        },
        {
            "buffer" : 0,
            "byteLength" : 40008,
            "byteOffset" : 114384
        },
        {
            "buffer" : 0,
            "byteLength" : 9192,
            "byteOffset" : 154392
        },
        {
            "buffer" : 0,
            "byteLength" : 9192,
            "byteOffset" : 163584
        },
        {
            "buffer" : 0,
            "byteLength" : 7080,
            "byteOffset" : 172776
        },
        {
            "buffer" : 0,
            "byteLength" : 1512,
            "byteOffset" : 179856
        },
        {
            "buffer" : 0,
            "byteLength" : 1512,
            "byteOffset" : 181368
        },
        {
            "buffer" : 0,
            "byteLength" : 1272,
            "byteOffset" : 182880
        },
        {
            "buffer" : 0,
            "byteLength" : 139560,
            "byteOffset" : 184152
        },
        {
            "buffer" : 0,
            "byteLength" : 139560,
            "byteOffset" : 323712
        },
        {
            "buffer" : 0,
            "byteLength" : 93168,
            "byteOffset" : 463272
        },
        {
            "buffer" : 0,
            "byteLength" : 9240,
            "byteOffset" : 556440
        },
        {
            "buffer" : 0,
            "byteLength" : 9240,
            "byteOffset" : 565680
        },
        {
            "buffer" : 0,
            "byteLength" : 7080,
            "byteOffset" : 574920
        },
        {
            "buffer" : 0,
            "byteLength" : 1656,
            "byteOffset" : 582000
        },
        {
            "buffer" : 0,
            "byteLength" : 1656,
            "byteOffset" : 583656
        },
        {
            "buffer" : 0,
            "byteLength" : 1296,
            "byteOffset" : 585312
        }
    ],
    "buffers" : [
        {
            "byteLength" : 586608,
            "uri" : "data:application/octet-stream;base64,"
        }
    ]
}
